<?xml version="1.0" encoding="UTF-8"?>
<svg id="Camada_1" xmlns="http://www.w3.org/2000/svg" version="1.1" viewBox="0 0 804.42 465.17">
  <!-- Generator: Adobe Illustrator 30.6.0, SVG Export Plug-In . SVG Version: 2.1.4 Build 109)  -->
  <defs>
    <style>
      .st0 {
        fill: #fff;
      }
    </style>
  </defs>
  <path class="st0" d="M284.2,301.37l35.41,100.24c.53,1.49-.58,3.05-2.15,3.05h-12.82c-.97,0-1.84-.62-2.16-1.54l-2.26-6.55-29.5-85.63-2.77-8.06c-.51-1.48.59-3.03,2.16-3.03h11.93c.97,0,1.83.61,2.15,1.52Z"/>
  <path class="st0" d="M728.92,172.28c8.63,0,15.11,7.87,13.46,16.34l-3.02,15.45-11.73,60.17c-2.51,12.88-13.79,22.18-26.92,22.18h-171.22l-16.93,87.82c-.86,4.48-7.04,5.07-8.73.83l-71.94-180.14-6.54-16.39c-1.2-3,1.01-6.27,4.24-6.27h299.32Z"/>
  <path class="st0" d="M804.17,16.3l-14.61,75.9c-2.49,12.91-13.78,22.24-26.93,22.24h-359.77c-1.87,0-3.55-1.14-4.24-2.88L356.56,6.27c-1.2-3,1.01-6.27,4.24-6.27h429.9c8.61,0,15.09,7.85,13.46,16.3Z"/>
  <path class="st0" d="M462.97,465.17h-79.27c-11.59,0-21.93-7.29-25.83-18.2l-15.04-42.1c-12.2-34.94-24.41-69.87-36.61-104.81l-55.27-157.21c-1.33-3.98-2.66-8.2-3.98-12.65-.47-1.57-2.68-1.58-3.17-.02l-.03.09c-.96,3.13-2.39,7.31-4.31,12.57l-54.49,154.97c-.38,1.09.43,2.24,1.59,2.24h68.46c1.95,0,3.69,1.24,4.32,3.08l2.75,8,29.5,85.63.7,2.03c1.02,2.97-1.18,6.06-4.32,6.06h-139.21c-.71,0-1.34.45-1.58,1.12l-14.64,40.98c-3.9,10.91-14.24,18.2-25.83,18.2H27.45c-19.45,0-32.71-19.68-25.42-37.7L167.93,17.15C172.12,6.79,182.18,0,193.35,0h103.71c11.18,0,21.23,6.78,25.42,17.14l71.89,177.79,81.8,202.34,12.21,30.19c7.29,18.03-5.98,37.7-25.42,37.7Z"/>
</svg>